<svg width="800" height="800" viewBox="0 0 800 800" fill="none" xmlns="http://www.w3.org/2000/svg">
<g clip-path="url(#clip0_434_799)">
<path d="M425 387.638H787.5C794.413 387.638 800 382.05 800 375.138C800 168.037 632.1 0.137501 425 0.137501C418.088 0.137501 412.5 5.725 412.5 12.6375V375.138C412.5 382.037 418.088 387.638 425 387.638ZM437.5 25.45C620.837 31.9 768.237 179.287 774.687 362.638H437.5V25.45Z" fill="#394240"/>
<path d="M787.5 412.638H450C449.45 412.638 448.975 412.875 448.438 412.937C447.387 413.075 446.337 413.175 445.337 413.562C444.362 413.95 443.55 414.612 442.725 415.225C442.275 415.562 441.737 415.738 441.325 416.125C441.3 416.15 441.287 416.2 441.262 416.225C440.187 417.275 439.362 418.537 438.725 419.912C438.675 420.025 438.55 420.112 438.5 420.225C438.3 420.7 438.313 421.275 438.175 421.787C437.888 422.837 437.537 423.9 437.525 424.987L437.5 425.138C437.5 425.8 437.775 426.387 437.887 427.037C438.037 427.962 438.088 428.887 438.438 429.775C438.875 430.875 439.587 431.775 440.3 432.688C440.562 433.038 440.687 433.475 441.012 433.8L441.138 433.925C441.138 433.925 441.162 433.962 441.187 433.975L690.163 690.3C758.038 622.437 800 528.688 800 425.138C800 418.225 794.413 412.638 787.5 412.638ZM689.075 654.7L479.45 437.638H774.675C771.762 520.588 740 596.162 689.075 654.7Z" fill="#394240"/>
<path d="M395.188 428.775C387.65 421.225 387.5 407.7 387.5 407.7V62.6375C387.5 55.725 381.913 50.1375 375 50.1375C167.9 50.1375 0 218.038 0 425.138C0 632.238 167.9 800.138 375 800.138C478.55 800.138 572.3 758.175 640.163 690.3L623.475 673.612C623.225 673.275 407.45 441.025 395.188 428.775ZM375 775.138C181.7 775.138 25 618.438 25 425.138C25 236.025 175 82.0375 362.5 75.45C362.5 75.45 362.5 401.3 362.5 412.638C362.5 423.975 366.788 435.263 375.2 443.662C383.613 452.063 604.35 689.388 604.35 689.388C542.925 742.763 462.763 775.138 375 775.138Z" fill="#394240"/>
<path d="M375 775.138C181.7 775.138 25 618.437 25 425.138C25 236.025 175 82.0375 362.5 75.45C362.5 75.45 362.5 401.3 362.5 412.638C362.5 423.975 366.788 435.262 375.2 443.662C383.613 452.062 604.35 689.388 604.35 689.388C542.925 742.763 462.763 775.138 375 775.138Z" fill="#45AAB8"/>
<path d="M437.5 25.45C620.837 31.9 768.237 179.288 774.687 362.638H437.5V25.45Z" fill="#F76D57"/>
<path d="M689.075 654.7L479.45 437.638H774.675C771.762 520.588 740 596.162 689.075 654.7Z" fill="#F9EBB2"/>
</g>
<defs>
<clipPath id="clip0_434_799">
<rect width="800" height="800" fill="white"/>
</clipPath>
</defs>
</svg>
