<svg width="800" height="800" viewBox="0 0 800 800" fill="none" xmlns="http://www.w3.org/2000/svg">
<g clip-path="url(#clip0_434_819)">
<path d="M775 750V175H25V750C25 763.8 36.2 775 50 775H750C763.8 775 775 763.8 775 750Z" fill="#F9EBB2"/>
<path d="M25 50V150H775V50C775 36.2 763.8 25 750 25H50C36.2 25 25 36.2 25 50Z" fill="#B4CCB9"/>
<path d="M750 0H50C22.3625 0 0 22.3625 0 50V750C0 777.638 22.3625 800 50 800H750C777.638 800 800 777.638 800 750V50C800 22.3625 777.638 0 750 0ZM775 750C775 763.8 763.8 775 750 775H50C36.2 775 25 763.8 25 750V175H775V750ZM775 150H25V50C25 36.2 36.2 25 50 25H750C763.8 25 775 36.2 775 50V150Z" fill="#394240"/>
<path d="M87.5 50C66.7875 50 50 66.7875 50 87.5C50 108.212 66.7875 125 87.5 125C108.212 125 125 108.212 125 87.5C125 66.7875 108.212 50 87.5 50ZM87.5 100C80.5875 100 75 94.4125 75 87.5C75 80.5875 80.5875 75 87.5 75C94.4125 75 100 80.5875 100 87.5C100 94.4125 94.4125 100 87.5 100Z" fill="#394240"/>
<path d="M412.5 50H187.5C166.788 50 150 66.7875 150 87.5C150 108.212 166.788 125 187.5 125H412.5C433.212 125 450 108.212 450 87.5C450 66.7875 433.212 50 412.5 50ZM412.5 100H187.5C180.587 100 175 94.4125 175 87.5C175 80.5875 180.587 75 187.5 75H412.5C419.413 75 425 80.5875 425 87.5C425 94.4125 419.413 100 412.5 100Z" fill="#394240"/>
<path d="M137.5 300H362.5C369.413 300 375 294.413 375 287.5C375 280.588 369.413 275 362.5 275H137.5C130.588 275 125 280.588 125 287.5C125 294.413 130.588 300 137.5 300Z" fill="#394240"/>
<path d="M137.5 375H362.5C369.413 375 375 369.413 375 362.5C375 355.588 369.413 350 362.5 350H137.5C130.588 350 125 355.588 125 362.5C125 369.413 130.588 375 137.5 375Z" fill="#394240"/>
<path d="M137.5 450H362.5C369.413 450 375 444.413 375 437.5C375 430.588 369.413 425 362.5 425H137.5C130.588 425 125 430.588 125 437.5C125 444.413 130.588 450 137.5 450Z" fill="#394240"/>
<path d="M137.5 525H362.5C369.413 525 375 519.413 375 512.5C375 505.588 369.413 500 362.5 500H137.5C130.588 500 125 505.588 125 512.5C125 519.413 130.588 525 137.5 525Z" fill="#394240"/>
<path d="M137.5 600H662.5C669.412 600 675 594.413 675 587.5C675 580.588 669.412 575 662.5 575H137.5C130.588 575 125 580.588 125 587.5C125 594.413 130.588 600 137.5 600Z" fill="#394240"/>
<path d="M137.5 675H662.5C669.412 675 675 669.413 675 662.5C675 655.588 669.412 650 662.5 650H137.5C130.588 650 125 655.588 125 662.5C125 669.413 130.588 675 137.5 675Z" fill="#394240"/>
<path d="M437.5 525H662.5C669.413 525 675 519.413 675 512.5V287.5C675 280.588 669.413 275 662.5 275H437.5C430.588 275 425 280.588 425 287.5V512.5C425 519.413 430.588 525 437.5 525ZM450 300H650V500H450V300Z" fill="#394240"/>
<path d="M650 300H450V500H650V300Z" fill="#F76D57"/>
<path d="M412.5 75H187.5C180.588 75 175 80.5875 175 87.5C175 94.4125 180.588 100 187.5 100H412.5C419.413 100 425 94.4125 425 87.5C425 80.5875 419.413 75 412.5 75Z" fill="#506C7F"/>
<path d="M87.5 100C94.4036 100 100 94.4036 100 87.5C100 80.5964 94.4036 75 87.5 75C80.5964 75 75 80.5964 75 87.5C75 94.4036 80.5964 100 87.5 100Z" fill="#506C7F"/>
</g>
<defs>
<clipPath id="clip0_434_819">
<rect width="800" height="800" fill="white"/>
</clipPath>
</defs>
</svg>
