<svg width="800" height="800" viewBox="0 0 800 800" fill="none" xmlns="http://www.w3.org/2000/svg">
<g clip-path="url(#clip0_434_766)">
<path d="M625 25C618.088 25 612.5 30.5875 612.5 37.5V50V75V125C612.5 131.912 618.088 137.5 625 137.5C631.913 137.5 637.5 131.912 637.5 125V75V50V37.5C637.5 30.5875 631.913 25 625 25Z" fill="#506C7F"/>
<path d="M175 25C168.088 25 162.5 30.5875 162.5 37.5V50V75V125C162.5 131.912 168.088 137.5 175 137.5C181.913 137.5 187.5 131.912 187.5 125V75V50V37.5C187.5 30.5875 181.913 25 175 25Z" fill="#506C7F"/>
<path d="M775 750C775 763.8 763.8 775 750 775H50C36.2 775 25 763.8 25 750V212.5H775V750Z" fill="#F9EBB2"/>
<path d="M775 187.5H25V100C25 86.2 36.2 75 50 75H137.5V125C137.5 145.713 154.288 162.5 175 162.5C195.712 162.5 212.5 145.713 212.5 125V75H587.5V125C587.5 145.713 604.287 162.5 625 162.5C645.713 162.5 662.5 145.713 662.5 125V75H750C763.8 75 775 86.2 775 100V187.5Z" fill="#F76D57"/>
<path d="M137.5 675H212.5C219.412 675 225 669.412 225 662.5V600C225 593.088 219.412 587.5 212.5 587.5H137.5C130.588 587.5 125 593.088 125 600V662.5C125 669.412 130.588 675 137.5 675ZM150 612.5H200V650H150V612.5Z" fill="#394240"/>
<path d="M287.5 675H362.5C369.412 675 375 669.412 375 662.5V600C375 593.088 369.412 587.5 362.5 587.5H287.5C280.588 587.5 275 593.088 275 600V662.5C275 669.412 280.588 675 287.5 675ZM300 612.5H350V650H300V612.5Z" fill="#394240"/>
<path d="M437.5 675H512.5C519.412 675 525 669.412 525 662.5V600C525 593.088 519.412 587.5 512.5 587.5H437.5C430.588 587.5 425 593.088 425 600V662.5C425 669.412 430.588 675 437.5 675ZM450 612.5H500V650H450V612.5Z" fill="#394240"/>
<path d="M137.5 537.5H212.5C219.412 537.5 225 531.912 225 525V462.5C225 455.588 219.412 450 212.5 450H137.5C130.588 450 125 455.588 125 462.5V525C125 531.912 130.588 537.5 137.5 537.5ZM150 475H200V512.5H150V475Z" fill="#394240"/>
<path d="M287.5 537.5H362.5C369.412 537.5 375 531.912 375 525V462.5C375 455.588 369.412 450 362.5 450H287.5C280.588 450 275 455.588 275 462.5V525C275 531.912 280.588 537.5 287.5 537.5ZM300 475H350V512.5H300V475Z" fill="#394240"/>
<path d="M437.5 537.5H512.5C519.412 537.5 525 531.912 525 525V462.5C525 455.588 519.412 450 512.5 450H437.5C430.588 450 425 455.588 425 462.5V525C425 531.912 430.588 537.5 437.5 537.5ZM450 475H500V512.5H450V475Z" fill="#394240"/>
<path d="M587.5 537.5H662.5C669.412 537.5 675 531.912 675 525V462.5C675 455.588 669.412 450 662.5 450H587.5C580.588 450 575 455.588 575 462.5V525C575 531.912 580.588 537.5 587.5 537.5ZM600 475H650V512.5H600V475Z" fill="#394240"/>
<path d="M137.5 400H212.5C219.412 400 225 394.412 225 387.5V325C225 318.088 219.412 312.5 212.5 312.5H137.5C130.588 312.5 125 318.088 125 325V387.5C125 394.412 130.588 400 137.5 400ZM150 337.5H200V375H150V337.5Z" fill="#394240"/>
<path d="M287.5 400H362.5C369.412 400 375 394.412 375 387.5V325C375 318.088 369.412 312.5 362.5 312.5H287.5C280.588 312.5 275 318.088 275 325V387.5C275 394.412 280.588 400 287.5 400ZM300 337.5H350V375H300V337.5Z" fill="#394240"/>
<path d="M437.5 400H512.5C519.412 400 525 394.412 525 387.5V325C525 318.088 519.412 312.5 512.5 312.5H437.5C430.588 312.5 425 318.088 425 325V387.5C425 394.412 430.588 400 437.5 400ZM450 337.5H500V375H450V337.5Z" fill="#394240"/>
<path d="M587.5 400H662.5C669.412 400 675 394.412 675 387.5V325C675 318.088 669.412 312.5 662.5 312.5H587.5C580.588 312.5 575 318.088 575 325V387.5C575 394.412 580.588 400 587.5 400ZM600 337.5H650V375H600V337.5Z" fill="#394240"/>
<path d="M750 50H662.5V37.5C662.5 16.7875 645.713 0 625 0C604.287 0 587.5 16.7875 587.5 37.5V50H212.5V37.5C212.5 16.7875 195.712 0 175 0C154.288 0 137.5 16.7875 137.5 37.5V50H50C22.3625 50 0 72.3625 0 100V750C0 777.638 22.3625 800 50 800H750C777.638 800 800 777.638 800 750V100C800 72.3625 777.638 50 750 50ZM612.5 37.5C612.5 30.5875 618.088 25 625 25C631.912 25 637.5 30.5875 637.5 37.5V125C637.5 131.913 631.912 137.5 625 137.5C618.088 137.5 612.5 131.913 612.5 125V37.5ZM162.5 37.5C162.5 30.5875 168.087 25 175 25C181.913 25 187.5 30.5875 187.5 37.5V125C187.5 131.913 181.913 137.5 175 137.5C168.087 137.5 162.5 131.913 162.5 125V37.5ZM775 750C775 763.8 763.8 775 750 775H50C36.2 775 25 763.8 25 750V212.5H775V750ZM775 187.5H25V100C25 86.2 36.2 75 50 75H137.5V125C137.5 145.712 154.288 162.5 175 162.5C195.712 162.5 212.5 145.712 212.5 125V75H587.5V125C587.5 145.712 604.287 162.5 625 162.5C645.713 162.5 662.5 145.712 662.5 125V75H750C763.8 75 775 86.2 775 100V187.5Z" fill="#394240"/>
<path d="M200 337.5H150V375H200V337.5Z" fill="#B4CCB9"/>
<path d="M350 337.5H300V375H350V337.5Z" fill="#B4CCB9"/>
<path d="M500 337.5H450V375H500V337.5Z" fill="#B4CCB9"/>
<path d="M650 337.5H600V375H650V337.5Z" fill="#B4CCB9"/>
<path d="M200 475H150V512.5H200V475Z" fill="#B4CCB9"/>
<path d="M350 475H300V512.5H350V475Z" fill="#B4CCB9"/>
<path d="M500 475H450V512.5H500V475Z" fill="#B4CCB9"/>
<path d="M650 475H600V512.5H650V475Z" fill="#B4CCB9"/>
<path d="M200 612.5H150V650H200V612.5Z" fill="#B4CCB9"/>
<path d="M350 612.5H300V650H350V612.5Z" fill="#B4CCB9"/>
<path d="M500 612.5H450V650H500V612.5Z" fill="#B4CCB9"/>
</g>
<defs>
<clipPath id="clip0_434_766">
<rect width="800" height="800" fill="white"/>
</clipPath>
</defs>
</svg>
