<svg width="141" height="141" viewBox="0 0 141 141" fill="none" xmlns="http://www.w3.org/2000/svg">
<path d="M125.143 23.5C127.558 23.5 129.25 25.3389 129.25 27.3951C129.25 28.8521 128.398 30.4207 126.33 31.5194C115.826 37.0889 103.664 56.3471 103.664 68.2263C121.383 67.6858 129.08 83.3956 129.08 93.2421C129.08 105.033 118.869 117.5 103.77 117.5C84.7352 117.5 75.3939 102.536 75.3939 86.3213C75.3939 51.1889 115.544 23.5 125.143 23.5ZM61.4995 23.5C63.9083 23.5 65.6062 25.3389 65.6062 27.3951C65.6062 28.8521 64.7543 30.4207 62.6863 31.5194C52.1818 37.0889 40.0205 56.3471 40.0205 68.2263C57.7395 67.6858 65.4358 83.3956 65.4358 93.2421C65.4358 105.033 55.2192 117.5 40.1263 117.5C21.0854 117.5 11.75 102.536 11.75 86.3213C11.75 51.1889 51.8939 23.5 61.4995 23.5Z" fill="black"/>
</svg>
