<svg width="70" height="64" viewBox="0 0 70 64" fill="none" xmlns="http://www.w3.org/2000/svg">
<path d="M35 50.725C39.2 50.725 42.7292 49.2958 45.5875 46.4375C48.4458 43.5792 49.875 40.0208 49.875 35.7625C49.875 31.5625 48.4458 28.0479 45.5875 25.2188C42.7292 22.3896 39.2 20.975 35 20.975C30.7417 20.975 27.1979 22.3896 24.3687 25.2188C21.5396 28.0479 20.125 31.5625 20.125 35.7625C20.125 40.0208 21.5396 43.5792 24.3687 46.4375C27.1979 49.2958 30.7417 50.725 35 50.725ZM35 45.475C32.2 45.475 29.8958 44.5563 28.0875 42.7188C26.2792 40.8812 25.375 38.5625 25.375 35.7625C25.375 33.0208 26.2792 30.7458 28.0875 28.9375C29.8958 27.1292 32.2 26.225 35 26.225C37.7417 26.225 40.0312 27.1292 41.8687 28.9375C43.7062 30.7458 44.625 33.0208 44.625 35.7625C44.625 38.5625 43.7062 40.8812 41.8687 42.7188C40.0312 44.5563 37.7417 45.475 35 45.475ZM5.25 63.5C3.85 63.5 2.625 62.975 1.575 61.925C0.525 60.875 0 59.65 0 58.25V13.3625C0 12.0208 0.525 10.8104 1.575 9.73125C2.625 8.65208 3.85 8.1125 5.25 8.1125H18.1125L24.5 0.5H45.5L51.8875 8.1125H64.75C66.0917 8.1125 67.3021 8.65208 68.3812 9.73125C69.4604 10.8104 70 12.0208 70 13.3625V58.25C70 59.65 69.4604 60.875 68.3812 61.925C67.3021 62.975 66.0917 63.5 64.75 63.5H5.25ZM64.75 58.25V13.3625H49.4375L43.05 5.75H26.95L20.5625 13.3625H5.25V58.25H64.75Z" fill="#6D28D9"/>
</svg>
